<?xml version="1.0" standalone="no"?>
<!DOCTYPE svg PUBLIC "-//W3C//DTD SVG 20010904//EN"
 "http://www.w3.org/TR/2001/REC-SVG-20010904/DTD/svg10.dtd">
<svg version="1.0" xmlns="http://www.w3.org/2000/svg"
 width="300.000000pt" height="133.000000pt" viewBox="0 0 300.000000 133.000000"
 preserveAspectRatio="xMidYMid meet">
<metadata>
Created by potrace 1.10, written by Peter Selinger 2001-2011
</metadata>
<g transform="translate(0.000000,133.000000) scale(0.050000,-0.050000)"
fill="#9d0146" stroke="none">
<path d="M4767 2255 c-5 -8 32 -15 82 -15 50 0 91 7 91 15 0 8 -37 15 -82 15
-45 0 -86 -7 -91 -15z"/>
<path d="M4902 2128 l-87 -151 -133 14 c-72 8 -134 16 -137 18 -3 3 29 44 70
93 81 94 141 177 85 118 -17 -18 -71 -78 -120 -133 -74 -82 -112 -106 -211
-135 -67 -20 -143 -54 -170 -76 -52 -42 -51 -42 68 12 42 20 80 32 84 28 13
-13 -25 -59 -53 -64 -15 -2 -70 -24 -122 -48 -104 -49 -124 -53 -106 -24 20
32 -23 23 -50 -10 -22 -26 -20 -29 7 -18 56 21 37 -3 -56 -69 -88 -63 -249
-132 -266 -114 -5 5 23 49 64 98 40 49 76 108 81 131 4 23 13 51 20 62 7 11 3
20 -7 20 -19 0 -44 -54 -55 -116 -16 -90 -151 -216 -229 -213 -44 2 -85 -4
-91 -14 -54 -88 333 22 537 152 78 50 190 106 248 125 58 18 100 41 94 51 -12
20 49 95 78 95 11 0 5 -22 -13 -50 l-33 -50 149 0 c139 0 151 4 189 55 27 37
47 48 60 35 22 -22 -9 -77 -51 -92 -13 -4 12 -23 55 -42 44 -18 75 -26 70 -18
-5 9 5 36 22 60 45 64 82 23 39 -42 -30 -47 -29 -51 20 -98 28 -26 68 -78 87
-116 28 -54 37 -61 48 -34 7 20 4 29 -7 22 -31 -19 -24 18 12 61 27 33 30 34
20 4 -6 -19 -1 -35 11 -35 23 0 15 -192 -11 -270 -7 -22 2 -8 20 30 38 79 40
203 5 287 l-24 57 -36 -47 c-29 -37 -36 -40 -37 -13 0 18 13 46 28 61 18 19
22 38 10 60 -13 22 -5 66 22 134 22 57 40 113 39 127 -1 13 -20 -25 -43 -86
-23 -60 -44 -113 -46 -116 -3 -3 -37 15 -75 40 -39 25 -85 55 -103 66 -29 18
-24 35 48 158 45 76 79 146 76 154 -3 9 -45 -51 -94 -134z m-262 -165 c0 -35
-73 -78 -134 -79 -59 -1 -63 2 -41 37 31 49 78 52 63 4 -8 -26 -2 -24 26 9 36
44 86 61 86 29z m56 -55 c-49 -50 -83 -27 -44 29 24 33 39 40 54 25 16 -16 13
-31 -10 -54z m184 -29 c-26 -48 -54 -64 -69 -40 -18 29 32 99 62 87 19 -7 21
-20 7 -47z m121 -97 c-24 -44 -61 -57 -61 -21 0 46 44 103 64 83 13 -13 12
-34 -3 -62z m59 -3 c0 -12 -9 -39 -21 -61 -30 -57 -62 -27 -35 33 23 50 56 66
56 28z"/>
<path d="M5035 2235 c-4 -13 23 -54 61 -90 80 -74 84 -76 84 -34 0 19 -9 26
-23 17 -16 -10 -20 -4 -11 18 9 24 3 29 -20 20 -24 -10 -30 -4 -21 18 9 24 2
29 -27 21 -29 -7 -36 -2 -26 23 7 17 8 32 2 32 -6 0 -14 -11 -19 -25z"/>
<path d="M3260 2223 c0 -13 15 -58 33 -99 18 -41 31 -87 29 -104 -3 -27 -1
-27 17 0 17 26 20 25 21 -6 0 -22 9 -31 23 -22 15 9 20 -6 13 -50 -5 -35 -2
-69 8 -74 9 -6 16 -4 14 6 -8 44 4 86 25 86 14 0 18 -23 11 -65 -10 -58 -9
-60 10 -20 30 62 63 57 47 -7 -8 -33 -5 -47 8 -38 12 7 21 25 21 41 0 16 11
30 25 30 14 1 4 10 -21 20 -92 37 -183 125 -233 225 -28 56 -51 91 -51 77z"/>
<path d="M3588 1850 c-7 -27 -19 -50 -27 -50 -8 0 -36 -46 -62 -101 -33 -72
-56 -99 -80 -93 -18 5 -32 -3 -32 -17 0 -14 13 -20 30 -14 20 8 25 4 13 -14
-9 -16 -7 -23 5 -19 29 11 208 358 185 358 -11 0 -25 -22 -32 -50z"/>
<path d="M1028 1512 c-507 -159 -570 -854 -100 -1096 101 -52 370 -73 479 -37
l73 24 0 212 0 212 -55 -51 c-240 -224 -572 2 -433 295 80 169 273 189 423 44
l65 -63 0 221 0 221 -77 23 c-100 30 -271 27 -375 -5z"/>
<path d="M1560 819 l0 -441 125 6 125 6 6 370 c8 512 11 500 -137 500 l-119 0
0 -441z"/>
<path d="M1860 820 l0 -440 129 0 130 0 5 230 6 229 178 -229 178 -230 117 0
117 0 0 440 0 440 -120 0 -120 0 0 -220 c0 -225 -9 -253 -58 -176 -15 24 -90
123 -166 220 l-139 176 -129 0 -128 0 0 -440z"/>
<path d="M2780 820 l0 -440 260 0 260 0 0 115 0 115 -125 0 c-114 0 -126 4
-131 44 -6 41 3 44 120 50 l126 6 6 115 6 115 -132 0 c-126 0 -132 2 -126 45
5 40 19 46 131 51 l125 6 0 109 0 109 -260 0 -260 0 0 -440z"/>
<path d="M3492 1205 c-20 -97 -132 -780 -132 -804 0 -15 41 -21 125 -17 l125
6 28 185 c35 227 35 227 124 0 70 -181 73 -185 137 -185 64 0 67 4 140 188 85
214 87 214 122 -23 l25 -175 127 0 c104 0 127 6 127 33 0 29 -105 657 -132
792 -11 53 -16 55 -135 55 l-124 0 -67 -180 c-36 -99 -73 -180 -80 -180 -8 0
-44 81 -81 180 l-67 180 -125 0 c-121 0 -126 -2 -137 -55z"/>
<path d="M4803 1226 c-22 -43 -323 -819 -323 -835 0 -6 61 -11 135 -11 l135 0
34 80 33 80 123 0 123 0 32 -80 31 -80 146 0 146 0 -47 125 c-26 69 -101 264
-166 435 l-119 310 -132 6 c-110 5 -135 0 -151 -30z m172 -416 c20 -67 19 -70
-27 -70 -50 0 -56 18 -35 95 17 64 37 56 62 -25z"/>
</g>
</svg>
